<svg class="h-5 w-auto mr-4 fill-current" viewBox="0 0 421 198" xmlns="http://www.w3.org/2000/svg"><title>wagmi logo</title><path fill-rule="evenodd" clip-rule="evenodd" d="M47.9961 119.99C47.9961 133.244 58.7404 143.988 71.9942 143.988H119.99C133.244 143.988 143.988 133.244 143.988 119.99V23.9981C143.988 10.7443 154.733 0 167.986 0C181.24 0 191.984 10.7443 191.984 23.9981V119.99C191.984 133.244 202.729 143.988 215.983 143.988H263.979C277.232 143.988 287.977 133.244 287.977 119.99V23.9981C287.977 10.7443 298.721 0 311.975 0C325.229 0 335.973 10.7443 335.973 23.9981V167.986C335.973 181.24 325.229 191.984 311.975 191.984H23.9981C10.7443 191.984 0 181.24 0 167.986L8.47642e-06 23.9981C9.4127e-06 10.7443 10.7443 0 23.9981 0C37.2518 0 47.9961 10.7443 47.9961 23.9981L47.9961 119.99ZM388.54 197.698C406.212 197.698 420.538 183.373 420.538 165.701C420.538 148.029 406.212 133.704 388.54 133.704C370.869 133.704 356.543 148.029 356.543 165.701C356.543 183.373 370.869 197.698 388.54 197.698Z" fill="inherit"></path></svg>